<?xml version="1.0" standalone="no"?>
<!DOCTYPE svg PUBLIC "-//W3C//DTD SVG 20010904//EN"
 "http://www.w3.org/TR/2001/REC-SVG-20010904/DTD/svg10.dtd">
<svg version="1.0" xmlns="http://www.w3.org/2000/svg"
 width="1280.000000pt" height="926.000000pt" viewBox="0 0 1280.000000 926.000000"
 preserveAspectRatio="xMidYMid meet">

<g transform="translate(0.000000,926.000000) scale(0.100000,-0.100000)"
fill="#000000" stroke="none">
<path d="M7555 9246 c-344 -66 -633 -371 -680 -717 -4 -30 -13 -83 -21 -119
-27 -128 -14 -291 47 -619 71 -377 305 -845 670 -1338 187 -252 197 -257 282
-140 201 274 513 847 655 1202 160 402 218 665 209 942 -5 170 -20 239 -79
362 -31 65 -57 101 -116 161 -83 83 -134 117 -244 161 -230 94 -484 39 -691
-151 -99 -90 -180 -220 -229 -366 -20 -60 -23 -88 -23 -214 1 -131 3 -152 27
-218 40 -112 84 -178 184 -279 97 -97 161 -137 253 -159 169 -40 343 84 418
298 52 148 28 299 -62 391 -59 59 -176 111 -255 111 -54 1 -55 1 -58 -30 -4
-38 15 -55 93 -83 95 -35 133 -65 162 -127 45 -98 28 -221 -44 -324 -71 -101
-169 -143 -253 -108 -55 24 -143 101 -199 175 -96 128 -126 221 -125 383 2
164 47 273 164 390 120 120 240 179 384 188 143 9 248 -30 352 -130 69 -66
116 -146 145 -245 10 -37 23 -71 29 -77 15 -15 12 -279 -5 -366 -59 -305 -205
-678 -404 -1035 -112 -199 -362 -615 -371 -615 -12 0 -67 72 -167 215 -336
482 -528 923 -578 1328 -19 150 -19 232 -1 367 29 213 96 353 232 480 80 75
144 111 304 170 126 47 150 62 150 95 0 47 -50 61 -155 41z"/>
<path d="M6370 8674 c-677 -63 -1250 -263 -1795 -627 -756 -506 -1310 -1267
-1540 -2117 -244 -903 -157 -1829 251 -2665 224 -461 531 -848 984 -1245 130
-114 157 -132 405 -270 819 -456 1331 -604 2025 -587 506 13 956 104 1393 283
737 301 1359 848 1774 1557 261 446 431 940 503 1457 79 574 30 1126 -149
1687 -64 201 -218 534 -334 723 -77 126 -228 333 -334 457 -262 307 -726 697
-797 670 -13 -5 -30 -58 -41 -130 -7 -44 3 -56 139 -159 168 -128 214 -169
341 -300 492 -510 828 -1162 955 -1855 98 -529 71 -1095 -76 -1605 -43 -152
-66 -195 -156 -298 -121 -137 -433 -440 -573 -556 -33 -27 -78 -65 -100 -86
-22 -20 -50 -44 -62 -55 -42 -35 -121 -152 -139 -205 -12 -36 -18 -81 -17
-139 1 -81 3 -92 38 -156 45 -81 43 -103 -12 -164 -61 -67 -250 -221 -378
-306 -246 -165 -556 -314 -870 -419 -379 -127 -680 -180 -1095 -196 -362 -13
-351 -13 -389 7 -24 12 -90 23 -211 35 -208 21 -260 33 -260 59 0 28 93 165
132 194 70 54 160 70 323 59 274 -19 348 26 525 318 109 178 211 257 430 331
126 42 193 39 246 -12 42 -40 87 -115 130 -217 56 -135 119 -185 229 -185 48
0 79 8 158 42 158 67 191 67 286 -5 67 -50 98 -54 117 -15 17 34 0 76 -53 129
-61 61 -99 74 -225 80 -98 4 -112 2 -173 -22 -36 -14 -78 -26 -94 -26 -48 0
-54 10 -91 156 -20 79 -124 214 -195 251 -40 21 -203 29 -320 14 -145 -17
-288 -99 -462 -265 -76 -71 -127 -144 -184 -261 -43 -87 -100 -146 -159 -164
-25 -7 -128 -17 -235 -21 -223 -9 -260 -19 -340 -92 -73 -67 -115 -151 -115
-231 l0 -59 -37 7 c-171 32 -669 251 -953 418 -185 109 -421 289 -543 415
l-59 59 27 84 c37 112 45 273 20 383 -32 145 -91 239 -256 411 -78 82 -119
139 -119 169 0 33 30 75 138 190 132 139 155 186 160 319 5 109 -6 160 -49
248 -55 112 -211 220 -379 264 -144 37 -391 30 -529 -15 -35 -12 -60 -15 -65
-10 -14 14 -25 177 -32 455 -5 183 -2 278 10 401 32 319 70 479 228 968 12 35
19 41 68 58 92 32 257 68 308 68 61 0 87 -24 86 -78 -2 -43 -71 -292 -154
-551 -73 -225 -145 -506 -160 -623 -15 -113 -2 -183 41 -224 92 -88 260 10
754 441 293 257 400 334 510 369 28 9 129 29 226 45 187 32 239 48 305 92 131
88 190 237 181 449 -6 148 -30 250 -127 545 -120 365 -134 425 -134 580 -1
174 12 206 144 365 25 30 57 71 71 90 64 87 128 254 150 393 7 40 15 75 18 79
8 9 328 82 476 109 66 11 183 25 260 30 271 18 324 24 337 37 18 18 17 134 -1
155 -11 15 -34 17 -155 15 -77 0 -157 -3 -176 -4z m-880 -402 c0 -4 -7 -35
-15 -67 -22 -84 -77 -172 -205 -327 -166 -202 -210 -300 -210 -479 0 -147 34
-305 137 -629 136 -432 148 -627 46 -741 -62 -68 -110 -86 -318 -120 -183 -30
-251 -57 -425 -173 -103 -68 -114 -77 -287 -246 -222 -218 -573 -493 -581
-455 -10 47 104 510 188 765 87 264 101 322 107 440 4 97 3 108 -19 149 -48
89 -155 107 -366 62 -57 -13 -106 -20 -109 -17 -6 5 74 157 150 286 136 229
310 459 486 645 380 399 808 687 1302 875 111 42 119 44 119 32z m-1815 -3966
c76 -21 169 -66 217 -106 21 -17 51 -59 70 -97 28 -58 33 -77 33 -143 -1 -94
-26 -151 -99 -219 -28 -26 -80 -74 -115 -107 -86 -80 -104 -118 -105 -219 0
-119 25 -164 188 -334 144 -150 173 -196 207 -330 13 -51 19 -108 19 -180 l-1
-106 -77 80 c-355 366 -661 923 -792 1445 -34 134 -64 290 -57 297 3 2 45 13
93 24 108 23 322 20 419 -5z m6054 -1153 c-54 -145 -484 -719 -521 -697 -19
12 -39 83 -40 140 -3 131 77 226 343 416 90 64 178 128 194 142 17 14 31 25
32 26 1 0 -2 -12 -8 -27z"/>
<path d="M7517 6108 c-12 -13 -49 -57 -82 -98 -93 -118 -155 -188 -186 -210
l-28 -21 -101 98 c-111 108 -158 135 -272 159 -171 37 -337 -16 -389 -123 -60
-124 48 -347 207 -425 129 -64 234 -64 368 0 48 23 98 42 110 42 13 0 61 -23
107 -51 164 -100 184 -108 315 -119 66 -5 187 -10 269 -10 241 0 373 -23 501
-85 181 -88 296 -298 296 -536 0 -99 -12 -148 -55 -236 -92 -190 -315 -351
-686 -498 -234 -92 -355 -114 -796 -146 -445 -32 -659 -115 -799 -313 -24 -33
-74 -117 -110 -184 -85 -159 -116 -204 -190 -275 -111 -107 -314 -185 -412
-158 -92 25 -133 90 -134 209 0 89 20 163 69 257 36 71 90 129 312 340 82 78
101 102 136 175 46 96 89 250 99 356 4 49 1 97 -10 155 -9 46 -23 178 -31 293
-23 313 -7 435 87 684 56 150 68 215 45 247 -13 16 -20 18 -44 10 -59 -21
-140 -231 -199 -520 -25 -124 -26 -140 -21 -340 4 -125 14 -274 27 -370 14
-103 19 -180 15 -215 -9 -77 -50 -194 -91 -262 -33 -54 -67 -90 -312 -324
-144 -138 -193 -225 -213 -384 -14 -106 -1 -223 31 -297 27 -61 94 -129 148
-150 62 -24 195 -23 277 1 133 39 276 127 387 238 72 72 111 133 172 266 72
161 116 213 236 279 125 70 279 103 520 113 199 8 476 38 605 65 212 44 519
171 702 291 159 105 311 275 365 408 103 257 59 590 -106 805 -119 155 -322
262 -579 307 -75 13 -119 15 -242 8 -307 -18 -401 -4 -486 73 l-38 35 91 101
c147 164 208 257 208 316 0 46 -55 57 -93 19z m-642 -262 c68 -31 124 -83 159
-146 l27 -50 -48 -21 c-97 -41 -199 -47 -263 -14 -89 46 -170 198 -126 234 45
38 166 36 251 -3z"/>
<path d="M6500 671 c-127 -28 -205 -108 -231 -237 -23 -115 25 -245 111 -299
59 -38 152 -59 222 -51 120 14 198 68 243 167 24 55 27 71 23 138 -7 119 -60
204 -160 254 -58 29 -148 41 -208 28z m167 -148 c47 -34 68 -81 68 -148 0 -77
-25 -122 -85 -153 -72 -36 -156 -24 -207 30 -72 77 -51 236 39 282 46 23 148
18 185 -11z"/>
<path d="M62 383 l3 -288 62 -3 62 -3 3 128 3 128 65 -82 c36 -45 70 -82 75
-82 6 -1 40 34 75 76 l65 77 3 -117 c3 -132 2 -132 93 -125 l44 3 0 284 c0
208 -3 285 -12 288 -6 2 -69 -66 -139 -151 -103 -127 -130 -154 -141 -144 -8
6 -55 69 -104 139 -49 71 -100 135 -112 144 -48 33 -47 34 -45 -272z"/>
<path d="M3583 633 c-8 -21 -62 -150 -120 -287 -114 -267 -114 -266 -46 -266
26 0 39 9 70 45 l37 45 97 0 97 0 19 -38 c19 -36 22 -37 81 -40 l61 -3 -55
133 c-31 73 -85 204 -121 291 -52 126 -69 157 -85 157 -13 0 -24 -12 -35 -37z
m66 -281 c13 -31 25 -63 28 -69 4 -10 -11 -13 -56 -13 -34 0 -61 2 -61 5 0 13
53 135 59 135 3 0 17 -26 30 -58z"/>
<path d="M3952 383 l3 -288 39 -3 c22 -2 50 -1 62 2 23 6 24 9 26 154 l3 147
47 -43 c26 -24 79 -81 119 -128 74 -86 132 -134 162 -134 16 0 17 23 17 280
l0 280 -65 0 -65 0 0 -146 0 -145 -30 21 c-17 12 -73 70 -125 129 -88 102
-156 161 -183 161 -9 0 -12 -68 -10 -287z"/>
<path d="M5171 400 c-70 -154 -121 -280 -119 -293 2 -18 10 -23 45 -25 54 -4
79 10 93 52 13 39 28 43 152 38 73 -3 77 -5 88 -32 7 -16 18 -34 26 -41 16
-14 103 -14 117 0 7 7 -13 63 -63 178 -122 283 -178 393 -199 393 -14 0 -44
-57 -140 -270z m173 -39 c39 -87 37 -91 -34 -91 -33 0 -60 2 -60 3 0 3 33 103
45 135 9 24 23 11 49 -47z"/>
<path d="M8142 657 c-76 -24 -120 -102 -102 -181 12 -52 67 -107 154 -152 85
-44 106 -61 106 -85 0 -40 -94 -52 -186 -24 -27 8 -50 15 -51 15 -5 0 -23 -68
-23 -91 0 -23 6 -30 38 -40 20 -7 80 -13 132 -13 83 0 102 3 140 25 53 28 80
75 80 137 0 86 -39 129 -190 208 -44 23 -56 35 -58 56 -5 39 25 48 111 35 39
-5 72 -6 77 -1 4 5 10 31 12 59 3 48 2 50 -27 56 -47 10 -177 8 -213 -4z"/>
<path d="M8843 647 c-54 -37 -76 -115 -51 -184 11 -30 10 -35 -15 -61 -74 -77
-57 -215 35 -278 34 -24 54 -29 114 -32 65 -4 79 -1 118 22 55 32 63 32 97 0
33 -32 59 -26 87 18 24 38 20 52 -19 68 -37 16 -37 29 1 65 35 33 38 67 10 95
-27 27 -41 25 -85 -10 -21 -17 -44 -30 -52 -30 -22 0 -181 162 -188 193 -10
38 0 57 29 57 31 0 59 -27 53 -52 -13 -48 31 -116 67 -102 22 8 41 64 41 121
0 56 -22 91 -77 119 -42 22 -127 17 -165 -9z m114 -362 c58 -60 65 -80 31 -89
-51 -13 -99 -6 -123 19 -42 41 -27 125 23 125 9 0 40 -25 69 -55z"/>
<path d="M10705 643 c-3 -15 -53 -127 -109 -248 -121 -259 -134 -294 -115
-306 22 -14 83 -10 106 6 12 8 24 29 28 45 l7 30 109 0 109 0 20 -40 c20 -39
22 -40 73 -40 28 0 58 4 64 8 9 6 -17 74 -95 254 -60 135 -117 260 -128 279
-26 45 -59 50 -69 12z m47 -245 c12 -19 48 -112 48 -125 0 -2 -27 -3 -60 -3
-41 0 -60 4 -60 13 0 20 43 137 51 137 4 0 13 -10 21 -22z"/>
<path d="M12477 656 c-80 -30 -116 -95 -98 -176 14 -64 51 -101 156 -156 39
-20 78 -44 88 -52 23 -20 22 -49 -2 -62 -29 -15 -122 -12 -171 5 -23 8 -44 15
-45 15 -7 0 -25 -66 -25 -91 0 -23 6 -29 37 -40 20 -6 77 -12 127 -13 78 0 98
3 141 24 65 33 87 73 82 153 -5 80 -25 103 -140 159 -70 34 -101 55 -109 74
-20 43 9 56 110 52 76 -3 83 -1 87 17 12 59 11 76 -2 87 -23 18 -190 21 -236
4z"/>
<path d="M7617 653 l-87 -4 2 -277 3 -277 52 -3 c67 -4 76 12 71 117 -3 74 -2
76 21 79 44 7 68 -17 107 -104 39 -89 49 -97 115 -96 73 1 74 13 18 122 l-42
79 19 27 c44 61 54 89 54 154 0 76 -25 140 -65 166 -29 19 -110 24 -268 17z
m165 -119 c28 -15 48 -42 48 -67 0 -43 -87 -86 -145 -71 -24 6 -25 10 -25 79
0 49 4 75 13 78 17 8 77 -3 109 -19z"/>
<path d="M10072 653 l-92 -4 2 -277 3 -277 63 -3 62 -3 0 95 0 95 34 7 c19 3
40 4 47 2 6 -2 26 -41 45 -87 18 -46 38 -89 45 -97 8 -9 33 -14 75 -14 80 0
81 6 18 126 -44 83 -46 88 -28 100 40 27 53 48 64 100 13 61 6 114 -22 165
-39 70 -88 82 -316 72z m153 -112 c49 -22 68 -43 68 -78 0 -44 -34 -63 -114
-63 l-69 0 0 80 0 80 38 0 c20 0 55 -9 77 -19z"/>
<path d="M720 375 l0 -275 23 -5 c13 -4 43 -5 68 -3 l44 3 3 278 2 277 -70 0
-70 0 0 -275z"/>
<path d="M962 373 l3 -278 62 -3 62 -3 3 98 3 98 102 3 102 3 3 -98 3 -98 30
-5 c17 -3 46 -3 65 0 l35 5 3 278 2 277 -63 0 -64 0 -7 -46 c-3 -26 -6 -82 -6
-125 l0 -79 -105 0 -105 0 0 125 0 125 -65 0 -65 0 2 -277z"/>
<path d="M1542 373 l3 -278 65 0 65 0 3 278 2 277 -70 0 -70 0 2 -277z"/>
<path d="M1730 612 c0 -55 23 -72 93 -72 l57 0 2 -222 3 -223 48 -3 c78 -5 77
-9 77 234 l0 214 60 0 60 0 0 55 0 55 -200 0 -200 0 0 -38z"/>
<path d="M2200 375 l0 -275 23 -6 c13 -3 41 -4 63 -2 l39 3 3 98 3 98 102 -3
102 -3 5 -95 5 -95 44 -3 c25 -2 55 -1 68 3 l23 5 0 275 0 275 -70 0 -70 0 0
-125 0 -125 -105 0 -105 0 0 125 0 125 -65 0 -65 0 0 -275z"/>
<path d="M3000 390 c0 -166 3 -267 10 -280 10 -19 21 -20 159 -20 165 0 161
-2 161 69 0 53 -13 61 -102 61 l-78 0 0 215 0 215 -74 0 -75 0 -1 -260z"/>
<path d="M4542 373 l3 -278 39 -3 c85 -7 86 -6 86 119 0 132 -2 132 101 -8 38
-51 78 -97 89 -103 27 -14 138 -16 152 -2 13 13 -5 39 -109 164 -109 132 -110
108 12 258 l106 130 -84 0 -85 0 -88 -101 -89 -101 -3 101 -3 101 -65 0 -64 0
2 -277z"/>
<path d="M5840 595 l0 -55 60 0 60 0 0 -219 c0 -190 2 -220 16 -225 27 -10
110 -6 122 6 9 9 12 73 12 225 l0 213 48 0 c59 0 82 20 82 73 l0 37 -200 0
-200 0 0 -55z"/>
<path d="M6950 432 l0 -219 31 -42 c44 -62 99 -83 210 -83 77 0 94 3 133 26
24 14 56 40 70 57 l26 31 0 224 0 224 -65 0 -65 0 0 -196 c0 -112 -4 -203 -10
-214 -10 -19 -66 -40 -108 -40 -14 0 -39 15 -58 34 l-34 34 0 191 0 191 -65 0
-65 0 0 -218z"/>
<path d="M9530 595 l0 -55 60 0 60 0 1 -207 c1 -115 1 -211 1 -215 -3 -17 31
-29 75 -26 l48 3 3 223 2 222 59 0 c69 0 91 18 91 73 l0 37 -200 0 -200 0 0
-55z"/>
<path d="M10970 623 c4 -16 58 -138 119 -272 61 -134 111 -248 111 -252 0 -5
11 -9 25 -9 22 0 32 14 79 112 43 88 153 338 193 436 4 9 -13 12 -66 12 -82 0
-75 8 -127 -142 -36 -103 -72 -183 -79 -176 -2 2 -18 44 -35 93 -17 50 -43
120 -57 158 l-25 67 -73 0 -74 0 9 -27z"/>
<path d="M11562 373 l3 -278 176 -3 177 -2 6 45 c13 83 10 85 -115 85 l-109 0
0 35 0 35 100 0 100 0 0 38 c0 59 -21 72 -118 72 l-82 0 0 70 0 70 116 0 116
0 -4 53 -3 52 -183 3 -182 2 2 -277z"/>
<path d="M12012 373 l3 -278 155 0 154 0 7 35 c5 21 3 45 -4 60 -11 23 -18 25
-95 28 l-82 3 0 214 0 215 -70 0 -70 0 2 -277z"/>
<path d="M4 35 c-3 -8 -3 -19 1 -25 4 -7 1954 -10 6401 -10 l6394 0 0 25 0 25
-6395 0 c-5582 0 -6396 -2 -6401 -15z"/>
</g>
</svg>
